<svg xmlns="http://www.w3.org/2000/svg" viewBox="0 0 1600 900" width="1600" height="900">
  <defs>
    <linearGradient id="nightSky" x1="0" y1="0" x2="0" y2="1">
      <stop offset="0%" stop-color="#1a1a3e"/>
      <stop offset="30%" stop-color="#2d2d5e"/>
      <stop offset="55%" stop-color="#4a3f6b"/>
      <stop offset="80%" stop-color="#6b5b7b"/>
      <stop offset="100%" stop-color="#7a6b8a"/>
    </linearGradient>
    <radialGradient id="moonGlow" cx="50%" cy="50%" r="50%">
      <stop offset="0%" stop-color="#FFF5E6" stop-opacity="0.3"/>
      <stop offset="50%" stop-color="#FFE4B5" stop-opacity="0.1"/>
      <stop offset="100%" stop-color="#FFE4B5" stop-opacity="0"/>
    </radialGradient>
    <radialGradient id="nightCloud" cx="50%" cy="50%" r="50%">
      <stop offset="0%" stop-color="#7a6b8a" stop-opacity="0.3"/>
      <stop offset="100%" stop-color="#7a6b8a" stop-opacity="0"/>
    </radialGradient>
    <radialGradient id="nightCloud2" cx="50%" cy="50%" r="50%">
      <stop offset="0%" stop-color="#6b5b7b" stop-opacity="0.2"/>
      <stop offset="100%" stop-color="#6b5b7b" stop-opacity="0"/>
    </radialGradient>
    <filter id="starGlow">
      <feGaussianBlur stdDeviation="1.5" result="blur"/>
      <feMerge><feMergeNode in="blur"/><feMergeNode in="SourceGraphic"/></feMerge>
    </filter>
  </defs>
  <rect width="1600" height="900" fill="url(#nightSky)"/>
  <circle cx="1000" cy="180" r="200" fill="url(#moonGlow)"/>
  <circle cx="1000" cy="180" r="50" fill="#FFF5E6" opacity="0.9" filter="url(#starGlow)"/>
  <circle cx="982" cy="170" r="42" fill="url(#nightSky)"/>
  <circle cx="1020" cy="195" r="4" fill="#FFF5E6" opacity="0.3"/>
  <g fill="#FFE4E8" opacity="0.7">
    <circle cx="120" cy="80" r="2.5"/><circle cx="250" cy="120" r="2"/>
    <circle cx="380" cy="60" r="3" opacity="0.8"/><circle cx="500" cy="140" r="1.8"/>
    <circle cx="650" cy="90" r="2.5"/><circle cx="750" cy="150" r="1.5"/>
    <circle cx="850" cy="70" r="2"/><circle cx="1100" cy="100" r="2.5"/>
    <circle cx="1250" cy="80" r="1.8"/><circle cx="1400" cy="120" r="2.5"/>
    <circle cx="1500" cy="60" r="3" opacity="0.8"/>
  </g>
  <g fill="#C9B1FF" opacity="0.5">
    <circle cx="180" cy="180" r="1.5"/><circle cx="350" cy="200" r="2"/>
    <circle cx="580" cy="170" r="1.5"/><circle cx="700" cy="210" r="1.8"/>
    <circle cx="1150" cy="160" r="1.5"/><circle cx="1300" cy="190" r="2"/>
    <circle cx="1450" cy="170" r="1.5"/>
  </g>
  <g fill="#B8D4F0" opacity="0.4">
    <circle cx="90" cy="150" r="1.5"/><circle cx="450" cy="100" r="1.8"/>
    <circle cx="820" cy="120" r="1.2"/><circle cx="1350" cy="140" r="1.5"/>
  </g>
  <g fill="#FFE4E8" opacity="0.6" filter="url(#starGlow)">
    <path d="M300 100 l2 -5 l2 5 l5 2 l-5 2 l-2 5 l-2 -5 l-5 -2 Z"/>
    <path d="M700 130 l1.5 -4 l1.5 4 l4 1.5 l-4 1.5 l-1.5 4 l-1.5 -4 l-4 -1.5 Z"/>
    <path d="M1200 110 l2 -5 l2 5 l5 2 l-5 2 l-2 5 l-2 -5 l-5 -2 Z"/>
    <path d="M500 80 l1 -3 l1 3 l3 1 l-3 1 l-1 3 l-1 -3 l-3 -1 Z"/>
    <path d="M950 50 l1.5 -4 l1.5 4 l4 1.5 l-4 1.5 l-1.5 4 l-1.5 -4 l-4 -1.5 Z"/>
    <path d="M1350 90 l1.2 -3 l1.2 3 l3 1.2 l-3 1.2 l-1.2 3 l-1.2 -3 l-3 -1.2 Z"/>
  </g>
  <g fill="url(#nightCloud)">
    <ellipse cx="200" cy="240" rx="100" ry="30"/>
    <ellipse cx="280" cy="230" rx="70" ry="25"/>
    <ellipse cx="140" cy="235" rx="60" ry="22"/>
  </g>
  <g fill="url(#nightCloud2)">
    <ellipse cx="1300" cy="220" rx="90" ry="28"/>
    <ellipse cx="1370" cy="210" rx="65" ry="22"/>
    <ellipse cx="1240" cy="215" rx="55" ry="20"/>
  </g>
  <g fill="none" stroke="#6b5b7b" stroke-width="2.5" stroke-linecap="round" opacity="0.4">
    <path d="M0 520 Q50 500 120 470 Q180 440 220 400"/>
    <path d="M100 480 Q140 450 170 410"/>
    <path d="M150 440 Q180 400 200 360"/>
    <path d="M220 400 Q250 370 280 340"/>
  </g>
  <g fill="none" stroke="#6b5b7b" stroke-width="2" stroke-linecap="round" opacity="0.3">
    <path d="M1550 420 Q1500 440 1450 460 Q1400 475 1350 490"/>
  </g>
  <g>
    <circle cx="120" cy="465" r="5" fill="#8B7BA8" opacity="0.5"/>
    <circle cx="128" cy="458" r="4" fill="#A08CB5" opacity="0.6"/>
    <circle cx="180" cy="430" r="5" fill="#8B7BA8" opacity="0.5"/>
    <circle cx="188" cy="425" r="4" fill="#A08CB5" opacity="0.6"/>
    <circle cx="220" cy="395" r="5" fill="#8B7BA8" opacity="0.5"/>
    <circle cx="228" cy="388" r="4" fill="#A08CB5" opacity="0.6"/>
    <circle cx="200" cy="355" r="4" fill="#8B7BA8" opacity="0.5"/>
    <circle cx="208" cy="350" r="3.5" fill="#A08CB5" opacity="0.6"/>
    <circle cx="240" cy="295" r="4" fill="#8B7BA8" opacity="0.4"/>
    <circle cx="247" cy="290" r="3.5" fill="#A08CB5" opacity="0.5"/>
    <circle cx="1450" cy="455" r="4" fill="#8B7BA8" opacity="0.4"/>
    <circle cx="1400" cy="480" r="4" fill="#8B7BA8" opacity="0.4"/>
  </g>
  <g opacity="0.4">
    <ellipse cx="320" cy="380" rx="3.5" ry="2" fill="#A08CB5" transform="rotate(25 320 380)"/>
    <ellipse cx="400" cy="340" rx="3" ry="1.8" fill="#8B7BA8" transform="rotate(-15 400 340)"/>
    <ellipse cx="480" cy="420" rx="3.5" ry="2" fill="#B8A0C8" transform="rotate(40 480 420)"/>
    <ellipse cx="300" cy="460" rx="3" ry="1.8" fill="#A08CB5" transform="rotate(-30 300 460)"/>
    <ellipse cx="550" cy="370" rx="3" ry="1.8" fill="#8B7BA8" transform="rotate(-10 550 370)"/>
    <ellipse cx="1150" cy="320" rx="3" ry="1.8" fill="#A08CB5" transform="rotate(35 1150 320)"/>
    <ellipse cx="1280" cy="360" rx="2.5" ry="1.5" fill="#8B7BA8" transform="rotate(-20 1280 360)"/>
  </g>
  <ellipse cx="800" cy="870" rx="500" ry="35" fill="#4a3f6b" opacity="0.2"/>
  <rect x="0" y="830" width="1600" height="70" fill="#4a3f6b" opacity="0.15"/>
</svg>
